<svg
 xmlns="http://www.w3.org/2000/svg"
 xmlns:xlink="http://www.w3.org/1999/xlink"
 width="20px" height="20px">
<path fill-rule="evenodd"  fill="current-color"
 d="M19.855,19.145 C19.465,19.535 18.861,19.564 18.506,19.210 L16.567,17.270 C15.814,17.724 14.943,18.000 14.000,18.000 C11.239,18.000 9.000,15.761 9.000,13.000 C9.000,10.239 11.239,8.000 14.000,8.000 C16.761,8.000 19.000,10.239 19.000,13.000 C19.000,14.093 18.639,15.096 18.044,15.919 L19.920,17.796 C20.275,18.150 20.246,18.754 19.855,19.145 ZM14.000,10.000 C12.343,10.000 11.000,11.343 11.000,13.000 C11.000,14.657 12.343,16.000 14.000,16.000 C15.657,16.000 17.000,14.657 17.000,13.000 C17.000,11.343 15.657,10.000 14.000,10.000 ZM8.689,7.000 C3.204,7.000 0.000,5.794 0.000,4.308 L0.000,2.693 C0.000,1.206 3.204,0.000 8.689,0.000 C14.175,0.000 18.000,1.206 18.000,2.693 L18.000,4.308 C18.000,5.794 14.174,7.000 8.689,7.000 ZM8.719,9.000 C8.840,9.000 8.955,8.999 9.074,8.998 C8.060,10.221 7.505,11.759 7.501,13.347 C2.747,13.152 0.000,11.840 0.000,10.251 L0.000,7.751 C0.000,7.424 0.145,7.109 0.442,6.812 C1.716,8.080 4.241,9.000 8.719,9.000 ZM4.000,11.000 L5.000,11.000 L5.000,10.000 L4.000,10.000 L4.000,11.000 ZM2.000,10.000 L3.000,10.000 L3.000,9.000 L2.000,9.000 L2.000,10.000 ZM7.615,15.603 C7.934,17.356 8.921,18.917 10.369,19.955 C9.841,19.982 9.303,20.000 8.750,20.000 C3.227,20.000 0.000,18.601 0.000,16.875 L0.000,14.375 C0.000,14.049 0.145,13.733 0.442,13.438 C1.607,14.596 3.822,15.462 7.615,15.603 ZM4.000,18.000 L5.000,18.000 L5.000,17.000 L4.000,17.000 L4.000,18.000 ZM2.000,17.000 L3.000,17.000 L3.000,16.000 L2.000,16.000 L2.000,17.000 Z"/>
</svg>
