<svg
 xmlns="http://www.w3.org/2000/svg"
 xmlns:xlink="http://www.w3.org/1999/xlink"
 width="20px" height="20px">
<path fill-rule="evenodd"  fill="currentColor"
 d="M19.000,18.000 L17.000,19.000 C16.448,19.000 16.000,18.552 16.000,18.000 L16.000,5.000 C16.000,4.448 16.448,4.000 17.000,4.000 L19.000,5.000 C19.552,5.000 20.000,5.448 20.000,6.000 L20.000,17.000 C20.000,17.552 19.552,18.000 19.000,18.000 ZM18.500,10.000 L17.500,10.000 C17.224,10.000 17.000,10.224 17.000,10.500 C17.000,10.776 17.224,11.000 17.500,11.000 L18.500,11.000 C18.776,11.000 19.000,10.776 19.000,10.500 C19.000,10.224 18.776,10.000 18.500,10.000 ZM18.500,13.000 L17.500,13.000 C17.224,13.000 17.000,13.224 17.000,13.500 C17.000,13.776 17.224,14.000 17.500,14.000 L18.500,14.000 C18.776,14.000 19.000,13.776 19.000,13.500 C19.000,13.224 18.776,13.000 18.500,13.000 ZM14.000,20.000 L6.000,20.000 C5.448,20.000 5.000,19.552 5.000,19.000 L5.000,1.000 C5.000,0.448 5.448,-0.000 6.000,-0.000 L14.000,-0.000 C14.552,-0.000 15.000,0.448 15.000,1.000 L15.000,19.000 C15.000,19.552 14.552,20.000 14.000,20.000 ZM12.500,11.000 L7.500,11.000 C7.224,11.000 7.000,11.224 7.000,11.500 C7.000,11.776 7.224,12.000 7.500,12.000 L12.500,12.000 C12.776,12.000 13.000,11.776 13.000,11.500 C13.000,11.224 12.776,11.000 12.500,11.000 ZM12.500,14.000 L7.500,14.000 C7.224,14.000 7.000,14.224 7.000,14.500 C7.000,14.776 7.224,15.000 7.500,15.000 L12.500,15.000 C12.776,15.000 13.000,14.776 13.000,14.500 C13.000,14.224 12.776,14.000 12.500,14.000 ZM12.500,17.000 L7.500,17.000 C7.224,17.000 7.000,17.224 7.000,17.500 C7.000,17.776 7.224,18.000 7.500,18.000 L12.500,18.000 C12.776,18.000 13.000,17.776 13.000,17.500 C13.000,17.224 12.776,17.000 12.500,17.000 ZM3.000,19.000 L1.000,18.000 C0.448,18.000 -0.000,17.552 -0.000,17.000 L-0.000,6.000 C-0.000,5.448 0.448,5.000 1.000,5.000 L3.000,4.000 C3.552,4.000 4.000,4.448 4.000,5.000 L4.000,18.000 C4.000,18.552 3.552,19.000 3.000,19.000 ZM2.500,10.000 L1.500,10.000 C1.224,10.000 1.000,10.224 1.000,10.500 C1.000,10.776 1.224,11.000 1.500,11.000 L2.500,11.000 C2.776,11.000 3.000,10.776 3.000,10.500 C3.000,10.224 2.776,10.000 2.500,10.000 ZM2.500,13.000 L1.500,13.000 C1.224,13.000 1.000,13.224 1.000,13.500 C1.000,13.776 1.224,14.000 1.500,14.000 L2.500,14.000 C2.776,14.000 3.000,13.776 3.000,13.500 C3.000,13.224 2.776,13.000 2.500,13.000 Z"/>
</svg>
