<svg id="delete" xmlns="http://www.w3.org/2000/svg" width="14" height="14" viewBox="0 0 14 14">
  <path
    d="M8.5 11c-.3 0-.5-.3-.5-.5V5c0-.3.2-.5.5-.5s.5.2.5.5v5.5c0 .2-.2.5-.5.5zm-3 0c-.3 0-.5-.3-.5-.5V5c0-.3.2-.5.5-.5s.5.2.5.5v5.5c0 .2-.2.5-.5.5zm8-8.5H11v-1C11 .7 10.3 0 9.5 0h-5C3.7 0 3 .7 3 1.5v1H.5c-.2 0-.5.2-.5.5s.2.5.5.5h12.9c.4 0 .6-.2.6-.5s-.2-.5-.5-.5zM4 1.5c0-.3.2-.5.5-.5h5c.3 0 .5.2.5.5v1H4v-1zM10.5 14h-7c-.8 0-1.5-.7-1.5-1.5V5c0-.3.2-.5.5-.5s.5.2.5.5v7.5c0 .2.3.5.5.5h7c.3 0 .5-.2.5-.5V5c0-.3.2-.5.5-.5s.5.2.5.5v7.5c0 .8-.7 1.5-1.5 1.5z"/>
</svg>
