<svg
 xmlns="http://www.w3.org/2000/svg"
 xmlns:xlink="http://www.w3.org/1999/xlink"
 width="16px" height="20px">
<path fill-rule="evenodd"  fill="currentColor"
 d="M14.899,20.000 L1.101,20.000 C0.494,19.998 0.002,19.485 0.000,18.852 L0.000,5.662 C0.000,5.372 0.111,5.093 0.308,4.887 L4.675,0.334 C4.880,0.120 5.158,-0.000 5.448,-0.000 L14.898,-0.000 C15.506,0.001 15.998,0.514 16.000,1.148 L16.000,18.852 C15.998,19.485 15.506,19.998 14.899,20.000 ZM7.000,2.848 C7.000,2.286 6.663,2.005 5.990,2.005 C5.317,2.005 4.980,2.286 4.980,2.848 L4.980,6.173 C4.980,6.736 5.317,7.017 5.990,7.017 C6.663,7.017 7.000,6.736 7.000,6.173 L7.000,2.848 ZM10.000,2.848 C10.000,2.286 9.663,2.005 8.990,2.005 C8.317,2.005 7.980,2.286 7.980,2.848 L7.980,6.173 C7.980,6.736 8.317,7.017 8.990,7.017 C9.663,7.017 10.000,6.736 10.000,6.173 L10.000,2.848 ZM13.000,2.848 C13.000,2.286 12.663,2.005 11.990,2.005 C11.317,2.005 10.980,2.286 10.980,2.848 L10.980,6.173 C10.980,6.736 11.317,7.017 11.990,7.017 C12.663,7.017 13.000,6.736 13.000,6.173 L13.000,2.848 ZM14.000,10.000 L2.000,10.000 L2.000,18.000 L14.000,18.000 L14.000,10.000 ZM4.184,12.000 L11.813,12.000 C11.938,12.000 12.000,12.053 12.000,12.159 L12.000,15.842 C12.000,15.947 11.938,16.000 11.813,16.000 L4.184,16.000 C4.059,16.000 3.997,15.947 3.997,15.842 L3.997,12.159 C3.997,12.053 4.059,12.000 4.184,12.000 Z"/>
</svg>
