<svg xmlns="http://www.w3.org/2000/svg" viewBox="0 0 14.625 14.625" width="14.625" height="14.625"><path d="M13.81 14.62h-2.109a.492.492 0 0 1-.492-.492.485.485 0 0 1 .492-.492h1.618a.323.323 0 0 0 .327-.328v-1.617a.492.492 0 0 1 .492-.492.485.485 0 0 1 .491.492v2.11a.821.821 0 0 1-.819.82zm.328-11.2a.492.492 0 0 1-.492-.492V1.312a.323.323 0 0 0-.327-.328h-1.618a.492.492 0 1 1 0-.983h2.109a.821.821 0 0 1 .819.819v2.11a.5.5 0 0 1-.491.492zm-2.57.461v6.863a.822.822 0 0 1-.82.819H3.887a.822.822 0 0 1-.819-.819V3.885a.822.822 0 0 1 .819-.819h6.861a.822.822 0 0 1 .82.819zm-.983.492a.324.324 0 0 0-.328-.328H4.379a.324.324 0 0 0-.328.328v5.89a.324.324 0 0 0 .328.328h5.888a.324.324 0 0 0 .328-.328v-5.89h-.01zM2.935.982H1.317a.324.324 0 0 0-.328.328v1.622a.492.492 0 0 1-.491.492.485.485 0 0 1-.492-.492V.822a.822.822 0 0 1 .82-.819h2.109a.492.492 0 0 1 .492.492.485.485 0 0 1-.492.492zM.494 11.212a.491.491 0 0 1 .491.492v1.618a.324.324 0 0 0 .328.328h1.618a.492.492 0 0 1 .492.492.485.485 0 0 1-.492.492H.822a.822.822 0 0 1-.82-.82v-2.11a.5.5 0 0 1 .492-.492zm0 0" fill="currentColor" fill-rule="evenodd"/></svg>
