<svg id="home" xmlns="http://www.w3.org/2000/svg" width="14" height="14" viewBox="0 0 14 14"><path fill="currentColor" d="M.5 6.5c-.1 0-.3 0-.4-.2-.2-.2-.1-.5 0-.7L6 .8C6.5.4 7.3.4 7.8.8l5.9 4.8c.2.1.2.5 0 .7-.2.2-.5.2-.7 0L7.3 1.6c-.1-.1-.4-.1-.6 0L.8 6.4c-.1.1-.2.1-.3.1zm11.3 7H8.5c-.3 0-.5-.2-.5-.5v-2.3c0-.4-.6-.7-1-.7s-1 .3-1 .7V13c0 .3-.2.5-.5.5H2.3c-.7 0-1.3-.5-1.3-1.2V7.5c0-.3.2-.5.5-.5s.5.2.5.5v4.7c0 .1.1.2.3.2H5v-1.8c0-1 1-1.7 2-1.7s2 .7 2 1.7v1.8h2.7c.1 0 .2 0 .2-.3V7.5c0-.3.2-.5.5-.5s.5.2.5.5v4.7c.1.8-.4 1.3-1.1 1.3z"/></svg>
