<svg id="instance-linked" xmlns="http://www.w3.org/2000/svg" width="16px" height="16px" viewBox="0 0 16 16">
<path fill="#35CD04" class="st0" d="M8,15.6c-4.2,0-7.6-3.4-7.6-7.6S3.8,0.3,8,0.3s7.6,3.4,7.6,7.6S12.2,15.6,8,15.6z M8,1.6C4.5,1.6,1.6,4.4,1.6,8
	s2.9,6.3,6.4,6.3s6.4-2.8,6.4-6.4S11.5,1.6,8,1.6z"/>
<g fill="#35CD04">
	<path class="st0" d="M9.2,12.3L9.2,12.3c-0.3,0-0.5-0.2-0.6-0.4L7,5.9l-1.5,4.8c0,0.1-0.1,0.3-0.3,0.3c-0.2,0.1-0.4,0-0.6-0.2
		L2.4,8.7H1.6v-1h1c0.2,0,0.3,0.1,0.4,0.2l1.8,1.8l1.7-5.5c0.1-0.3,0.3-0.4,0.6-0.4c0.3,0,0.5,0.2,0.6,0.4l1.6,6l1.1-3.4
		c0.1-0.2,0.3-0.4,0.5-0.4s0.4,0.1,0.6,0.2l0.8,1.1h2.2v1H12c-0.2,0-0.4-0.1-0.5-0.2l-0.4-0.6l-1.3,4C9.7,12.2,9.5,12.3,9.2,12.3z
		 M12.4,7.8L12.4,7.8L12.4,7.8z"/>
	<path class="st0" d="M9.2,12.4L9.2,12.4c-0.3,0-0.6-0.2-0.7-0.5L7.1,6.2l-1.4,4.4c-0.1,0.2-0.3,0.4-0.5,0.5s-0.5,0-0.7-0.2L2.4,8.8
		H1.5V7.5h1.1c0.2,0,0.4,0.1,0.5,0.2l1.7,1.7L6.5,4c0.1-0.3,0.4-0.5,0.7-0.5l0,0c0.3,0,0.6,0.2,0.7,0.5l1.5,5.7l1-3.1
		c0.1-0.2,0.3-0.4,0.5-0.5c0.3,0,0.5,0.1,0.7,0.3l0.8,1h2.2v1.2H12c-0.2,0-0.4-0.1-0.6-0.3l-0.3-0.4l-1.3,3.8
		C9.8,12.2,9.5,12.4,9.2,12.4z M7.1,5.5l1.6,6.3c0.1,0.2,0.2,0.4,0.5,0.4v0.1v-0.1c0.2,0,0.4-0.1,0.5-0.3l1.4-4.2l0.5,0.7
		c0.1,0.1,0.2,0.2,0.4,0.2h2.3V7.7h-2.1l-0.8-1.1c-0.1-0.1-0.3-0.2-0.5-0.2s-0.3,0.2-0.4,0.3l-1.2,3.7L7.6,4.2
		C7.5,3.9,7.4,3.8,7.1,3.8l0,0c-0.2,0-0.4,0.1-0.5,0.3L4.9,9.8l-2-1.9C2.8,7.8,2.7,7.7,2.6,7.7H1.7v0.8h0.8l2.2,2.2
		C4.8,10.9,5,11,5.1,10.9c0.2,0,0.3-0.2,0.4-0.3L7.1,5.5z M12.3,7.9L12.3,7.9L12.3,7.9l0.1-0.1l0,0l0,0L12.3,7.9z"/>
</g>
</svg>
