<svg id="logo" xmlns="http://www.w3.org/2000/svg" viewBox="0 0 24.049 28.683" width="24.049" height="28.683"><linearGradient id="a" x1="50.035%" y1="-.177%" x2="50.035%" y2="99.576%"><stop offset=".3%" stop-color="#77BC37"/><stop offset="100%" stop-color="#519F27"/></linearGradient><path d="M7.896 5.85h7s3.4.2 4 3c0 0 .5 2.6-.2 3.8 0 0-.2.4-.4.7 0 0-.5.4-.1.9 0 0 .9.9.9 3 0 0-.1 2-1.3 3.3 0 0-1 1-2.6 1.1h-7.6s-2.5-.2-2.8-2.5v-3.4s0-1 1.1-1c0 0 1.3-.1 1.3 1.1v2.2s0 .9 1 .9l7-.1s1.4-.1 1.4-1.6c0-.3.1-1.3-.5-1.9-.1-.1-.4-.5-1.1-.5h-6.1s-1-.1-.9-1.4c0 0-.1-.8 1-1.1h6.7c.6-.1 1.1-.8 1-2 0 0 .1-.9-.6-1.6 0 0-.3-.4-1-.4h-7s-.7.2-.7.9v2.3s0 1-1 1c0 0-.4.1-1-.2 0 0-.4-.2-.4-.7v-3s.1-1.4 1-2.2c.1-.2.6-.6 1.9-.6z" fill="url(#a)"/><path d="M1.496 2.45s-.5.4-.2.7c0 0 1.6 1.5 1.8 1.6 0 0 .2-.1.5-.3 0 0 2.2-1.8 6-2 0 0 1.6-.4 5.3.1 1.1.1 3.2.4 5.6 1.9.1 0 .2.1.3.2.3.2.2.3.7-.1 0 0 1.4-1.3 1.4-1.4 0 0 .2-.1-.2-.4 0 0-2.1-1.5-5.1-2 0 0-2-.5-4.5-.7 0 0-2.3-.2-4.8.2-.2 0-4.6.5-6.8 2.2z" fill="#77BC37"/><path d="M2.396 20.45c.1-.1.2-.2.3-.1 0 0 .7 1.8 4 4 .8.5 2.7 1.3 4.3 1.8 0 0 .9.2 2.2 0 0 0 2.2-.7 4.6-2.4 0 0 1.8-.9 3-2.7l.4-.6s.1-.3.5 0l1.4 1.2s.2.1 0 .4c0 0-1.7 2.4-5 4.3 0 0-1.9 1.4-4.9 2.2 0 0-1 .3-2.3 0 0 0-3.4-.8-5.9-2.5 0 0-1.8-1.2-3.5-3.3-.2-.2-.6-.7-.8-1.1 0 0 0-.1.2-.2 0 .1 1.1-.7 1.5-1z" fill="#55A229"/><linearGradient id="b" x1="-.729%" y1="49.797%" x2="99.666%" y2="49.797%"><stop offset=".4%" stop-color="#77BC37"/><stop offset="100%" stop-color="#519F27"/></linearGradient><path d="M.296 3.95c-.3.9-.2 1.8-.2 2.4 0 1 .6 2.8.6 2.8.4 1.3.2 4.3.2 4.3-.2 1.7-.8 4.6-.8 4.6-.3 1.3.2 2.9.2 3 .2.1 2-1.4 2-1.4.1-.1.1-.3.1-.3-.2-1.1.1-1.9.2-2.5.1-.3.2-.5.2-.6.2-2 .4-3.1.5-4.1.1-2.4-.3-3.5-.3-3.5-.7-2.4-.4-3.2-.4-3.2v-.2l-2-1.6c-.1-.1-.3.3-.3.3z" fill="url(#b)"/><linearGradient id="c" x1=".771%" y1="50.169%" x2="98.563%" y2="50.169%"><stop offset=".3%" stop-color="#77BC37"/><stop offset="100%" stop-color="#519F27"/></linearGradient><path d="M23.296 3.75l-1.9 1.6v.2s.2.8-.4 3.1c0 0-.5 1.2-.3 3.5.1 1 .2 2.1.5 4.1 0 .2.1.4.2.7.2.6.4 1.4.2 2.5 0 0 0 .1.1.2 0 0 1.8 1.5 2 1.4.1-.1.6-1.7.2-3 0 0-.6-2.8-.8-4.6 0 0-.2-3 .2-4.3 0 0 .6-1.8.6-2.9 0-.6 0-1.4-.2-2.3 0 .2-.2-.3-.4-.2z" fill="url(#c)"/></svg>
