<svg xmlns="http://www.w3.org/2000/svg" id="图层_1" width="14" height="14" viewbox="0 0 14 14">
  <path d="M13.2.7H.8c-.4 0-.7.3-.7.7V10c0 .4.3.7.7.7h4.5V12H3.8c-.4 0-.6.3-.6.6 0 .4.3.6.6.6h6.4c.4 0 .6-.3.6-.6s-.3-.6-.6-.6H8.7v-1.2h4.5c.4 0 .7-.3.7-.7V1.4c0-.3-.3-.7-.7-.7zM7.4 12h-.8v-1.2h.7V12h.1zm5.2-2.6H1.4V2.1h11.1l.1 7.3z" fill="currentColor"/>
  <path d="M7.5 8.1h1.3V4.8l-1.2 1-.2-.2V8l.1.1zM2.3 8H3.7V5.5L2.3 6.8V8zm2.7.1h1.3V4.7L5.6 4l-.8.7v3.4H5zm5-.1H11.4V2.6L9.9 3.9v4c0 .1 0 .1.1.1z" fill="currentColor"/>
</svg>
