<svg
 xmlns="http://www.w3.org/2000/svg"
 xmlns:xlink="http://www.w3.org/1999/xlink"
 width="20px" height="4px">
<path fill-rule="evenodd"  fill="currentColor"
 d="M18.000,4.000 C16.895,4.000 16.000,3.105 16.000,2.000 C16.000,0.895 16.895,-0.000 18.000,-0.000 C19.105,-0.000 20.000,0.895 20.000,2.000 C20.000,3.105 19.105,4.000 18.000,4.000 ZM10.000,4.000 C8.895,4.000 8.000,3.105 8.000,2.000 C8.000,0.895 8.895,-0.000 10.000,-0.000 C11.105,-0.000 12.000,0.895 12.000,2.000 C12.000,3.105 11.105,4.000 10.000,4.000 ZM2.000,4.000 C0.895,4.000 -0.000,3.105 -0.000,2.000 C-0.000,0.895 0.895,-0.000 2.000,-0.000 C3.105,-0.000 4.000,0.895 4.000,2.000 C4.000,3.105 3.105,4.000 2.000,4.000 Z"/>
</svg>
