<svg
 xmlns="http://www.w3.org/2000/svg"
 xmlns:xlink="http://www.w3.org/1999/xlink"
 width="18px" height="18px">
<path fill-rule="evenodd"  fill="currentColor"
 d="M14.000,18.000 L4.000,18.000 L0.000,18.000 L0.000,12.000 L0.000,9.000 L4.000,9.000 L4.000,12.000 L14.000,12.000 L14.000,9.000 L18.000,9.000 L18.000,12.000 L18.000,18.000 L14.000,18.000 ZM13.000,11.000 L5.000,11.000 L5.000,8.000 L2.000,8.000 L2.000,-0.000 L16.000,-0.000 L16.000,7.953 L13.000,8.000 L13.000,11.000 ZM4.500,2.000 C4.224,2.000 4.000,2.224 4.000,2.500 C4.000,2.776 4.224,3.000 4.500,3.000 C4.776,3.000 5.000,2.776 5.000,2.500 C5.000,2.224 4.776,2.000 4.500,2.000 ZM4.500,5.000 C4.224,5.000 4.000,5.224 4.000,5.500 C4.000,5.776 4.224,6.000 4.500,6.000 C4.776,6.000 5.000,5.776 5.000,5.500 C5.000,5.224 4.776,5.000 4.500,5.000 ZM13.500,2.000 L6.500,2.000 C6.224,2.000 6.000,2.224 6.000,2.500 C6.000,2.776 6.224,3.000 6.500,3.000 L13.500,3.000 C13.776,3.000 14.000,2.776 14.000,2.500 C14.000,2.224 13.776,2.000 13.500,2.000 ZM13.500,6.000 C13.776,6.000 14.000,5.776 14.000,5.500 C14.000,5.224 13.776,5.000 13.500,5.000 L6.500,5.000 C6.224,5.000 6.000,5.224 6.000,5.500 C6.000,5.776 6.224,6.000 6.500,6.000 L13.500,6.000 Z"/>
</svg>
