<svg
 xmlns="http://www.w3.org/2000/svg"
 xmlns:xlink="http://www.w3.org/1999/xlink"
 width="20px" height="20px">
<path fill-rule="evenodd"  fill="currentColor"
 d="M18.929,11.786 L16.909,11.786 C16.825,12.110 16.717,12.424 16.590,12.728 L15.186,11.324 C15.294,10.900 15.357,10.457 15.357,10.000 C15.357,7.041 12.959,4.643 10.000,4.643 C7.041,4.643 4.643,7.041 4.643,10.000 C4.643,12.959 7.041,15.357 10.000,15.357 C10.457,15.357 10.900,15.294 11.324,15.186 L12.732,16.594 C12.425,16.724 12.108,16.832 11.786,16.916 L11.786,18.929 C11.786,19.520 11.306,20.000 10.714,20.000 L9.286,20.000 C8.694,20.000 8.214,19.520 8.214,18.929 L8.214,16.909 C7.484,16.722 6.789,16.420 6.155,16.014 L4.704,17.465 C4.704,17.465 4.704,17.465 4.704,17.465 C4.285,17.883 3.607,17.883 3.188,17.465 L2.179,16.455 C1.760,16.036 1.760,15.358 2.179,14.939 L3.717,13.401 C3.444,12.897 3.238,12.354 3.091,11.786 L1.071,11.786 C0.480,11.786 -0.000,11.306 -0.000,10.715 L-0.000,9.286 C-0.000,8.694 0.480,8.215 1.071,8.215 L3.082,8.215 C3.227,7.652 3.440,7.110 3.717,6.600 L2.179,5.061 C1.760,4.643 1.760,3.965 2.179,3.546 L3.188,2.536 C3.188,2.536 3.189,2.536 3.189,2.536 C3.607,2.117 4.286,2.118 4.704,2.536 L6.155,3.987 C6.789,3.581 7.485,3.279 8.214,3.091 L8.214,1.071 C8.214,0.480 8.694,-0.000 9.286,-0.000 L10.714,-0.000 C11.306,-0.000 11.786,0.480 11.786,1.071 L11.786,3.091 C12.515,3.279 13.211,3.581 13.845,3.986 L15.296,2.536 C15.296,2.536 15.296,2.536 15.296,2.535 C15.715,2.117 16.393,2.117 16.811,2.536 L17.821,3.546 C18.240,3.964 18.240,4.642 17.821,5.061 L16.283,6.600 C16.556,7.110 16.767,7.653 16.909,8.214 L18.929,8.214 C19.520,8.214 20.000,8.694 20.000,9.286 L20.000,10.714 C20.000,11.306 19.520,11.786 18.929,11.786 ZM6.894,13.031 C5.772,11.911 5.405,10.325 5.784,8.895 L8.155,11.262 C8.574,11.680 9.252,11.680 9.670,11.261 L11.185,9.745 L11.185,9.745 C11.603,9.326 11.602,8.648 11.184,8.230 L8.813,5.862 C10.242,5.480 11.829,5.845 12.950,6.966 C14.270,8.283 14.546,10.246 13.788,11.840 L18.008,16.054 C18.287,16.333 18.287,16.785 18.009,17.064 L16.999,18.075 C16.720,18.354 16.268,18.354 15.989,18.075 L11.769,13.862 C10.176,14.623 8.213,14.349 6.894,13.031 ZM15.756,16.792 C16.035,17.071 16.488,17.071 16.766,16.791 C17.045,16.512 17.045,16.060 16.766,15.781 C16.487,15.502 16.035,15.502 15.756,15.781 C15.477,16.061 15.477,16.513 15.756,16.792 Z"/>
</svg>
