<svg
 xmlns="http://www.w3.org/2000/svg"
 xmlns:xlink="http://www.w3.org/1999/xlink"
 width="20px" height="20px">
<path fill-rule="evenodd"  fill="currentColor"
 d="M18.000,9.816 L18.000,19.000 C18.000,19.552 17.552,20.000 17.000,20.000 C16.448,20.000 16.000,19.552 16.000,19.000 L16.000,9.816 C14.837,9.403 14.000,8.304 14.000,7.000 C14.000,5.696 14.837,4.597 16.000,4.184 L16.000,1.000 C16.000,0.448 16.448,-0.000 17.000,-0.000 C17.552,-0.000 18.000,0.448 18.000,1.000 L18.000,4.184 C19.163,4.597 20.000,5.696 20.000,7.000 C20.000,8.304 19.163,9.403 18.000,9.816 ZM17.000,6.000 C16.448,6.000 16.000,6.448 16.000,7.000 C16.000,7.552 16.448,8.000 17.000,8.000 C17.552,8.000 18.000,7.552 18.000,7.000 C18.000,6.448 17.552,6.000 17.000,6.000 ZM11.000,16.816 L11.000,19.000 C11.000,19.552 10.552,20.000 10.000,20.000 C9.448,20.000 9.000,19.552 9.000,19.000 L9.000,16.816 C7.837,16.403 7.000,15.304 7.000,14.000 C7.000,12.696 7.837,11.597 9.000,11.184 L9.000,1.000 C9.000,0.448 9.448,-0.000 10.000,-0.000 C10.552,-0.000 11.000,0.448 11.000,1.000 L11.000,11.184 C12.163,11.597 13.000,12.696 13.000,14.000 C13.000,15.304 12.163,16.403 11.000,16.816 ZM10.000,13.000 C9.448,13.000 9.000,13.448 9.000,14.000 C9.000,14.552 9.448,15.000 10.000,15.000 C10.552,15.000 11.000,14.552 11.000,14.000 C11.000,13.448 10.552,13.000 10.000,13.000 ZM4.000,7.816 L4.000,19.000 C4.000,19.552 3.552,20.000 3.000,20.000 C2.448,20.000 2.000,19.552 2.000,19.000 L2.000,7.816 C0.837,7.403 -0.000,6.304 -0.000,5.000 C-0.000,3.696 0.837,2.597 2.000,2.184 L2.000,1.000 C2.000,0.448 2.448,-0.000 3.000,-0.000 C3.552,-0.000 4.000,0.448 4.000,1.000 L4.000,2.184 C5.163,2.597 6.000,3.696 6.000,5.000 C6.000,6.304 5.163,7.403 4.000,7.816 ZM3.000,4.000 C2.448,4.000 2.000,4.448 2.000,5.000 C2.000,5.552 2.448,6.000 3.000,6.000 C3.552,6.000 4.000,5.552 4.000,5.000 C4.000,4.448 3.552,4.000 3.000,4.000 Z"/>
</svg>
