<svg
 xmlns="http://www.w3.org/2000/svg"
 xmlns:xlink="http://www.w3.org/1999/xlink"
 width="20px" height="19px">
<path fill-rule="evenodd"  fill="currentColor"
 d="M18.402,18.999 L1.599,18.999 C0.716,18.999 0.001,18.274 -0.000,17.380 L-0.000,1.619 C0.001,0.725 0.716,0.001 1.599,-0.000 L18.401,-0.000 C19.284,-0.000 20.000,0.725 20.000,1.619 L20.000,17.380 C19.999,18.274 19.284,18.999 18.402,18.999 ZM2.985,2.013 C2.455,2.026 2.027,2.452 2.015,2.982 C2.001,3.530 2.436,3.986 2.985,4.000 C3.001,4.000 3.018,4.000 3.034,4.000 C3.583,3.986 4.018,3.530 4.004,2.982 C3.991,2.433 3.535,1.999 2.985,2.013 ZM5.985,2.013 C5.455,2.026 5.028,2.452 5.015,2.982 C5.001,3.530 5.436,3.986 5.985,4.000 C6.001,4.000 6.018,4.000 6.034,4.000 C6.583,3.986 7.018,3.530 7.004,2.982 C6.991,2.433 6.535,1.999 5.985,2.013 ZM8.985,2.013 C8.454,2.026 8.028,2.452 8.014,2.982 C8.001,3.530 8.436,3.986 8.985,4.000 C9.001,4.000 9.018,4.000 9.034,4.000 C9.583,3.986 10.018,3.530 10.004,2.982 C9.991,2.433 9.535,1.999 8.985,2.013 ZM19.000,6.002 L1.000,6.002 L1.000,17.207 C1.000,17.207 1.000,17.207 1.000,17.207 C1.000,17.653 1.368,18.014 1.823,18.014 L18.177,18.014 C18.177,18.014 18.178,18.014 18.178,18.014 C18.632,18.014 19.000,17.652 19.000,17.207 L19.000,6.002 ZM14.309,8.320 L15.839,8.320 L15.839,13.670 L18.309,13.670 L18.309,15.021 L14.309,15.021 L14.309,8.320 ZM9.521,15.075 C8.171,14.760 7.299,13.526 7.299,11.634 C7.299,9.437 8.478,8.194 10.213,8.194 C11.948,8.194 13.128,9.446 13.128,11.634 C13.128,13.418 12.350,14.625 11.128,15.012 C11.419,15.471 11.991,15.642 12.504,15.642 C12.778,15.642 13.025,15.588 13.222,15.516 L13.487,16.687 C13.248,16.822 12.837,16.912 12.333,16.912 C10.949,16.912 9.983,16.147 9.521,15.075 ZM11.572,11.634 C11.572,10.338 11.051,9.572 10.213,9.572 C9.376,9.572 8.863,10.338 8.863,11.634 C8.863,13.030 9.376,13.832 10.213,13.832 C11.051,13.832 11.572,13.030 11.572,11.634 ZM4.477,10.878 L5.272,11.211 C6.059,11.544 6.529,12.103 6.529,13.048 C6.529,14.165 5.640,15.147 4.101,15.147 C3.272,15.147 2.383,14.823 1.725,14.183 L2.588,13.075 C3.041,13.481 3.631,13.760 4.135,13.760 C4.700,13.760 4.965,13.535 4.965,13.175 C4.965,12.787 4.614,12.661 4.067,12.418 L3.255,12.058 C2.588,11.779 1.965,11.193 1.965,10.220 C1.965,9.095 2.922,8.194 4.272,8.194 C5.007,8.194 5.785,8.491 6.341,9.077 L5.580,10.085 C5.161,9.752 4.768,9.572 4.272,9.572 C3.802,9.572 3.512,9.770 3.512,10.130 C3.512,10.500 3.913,10.644 4.477,10.878 Z"/>
</svg>
