<svg xmlns="http://www.w3.org/2000/svg" viewBox="0 0 24 24"><path fill="currentColor" d="M12 10.3c2.1 0 4.1-.2 5.9-.6 1.8-.4 3.3-1 4.4-1.7v2.3c0 .6-.5 1.2-1.4 1.7-.9.5-2.2.9-3.8 1.3-1.6.3-3.3.5-5.2.5-1.7 0-3.5-.1-5.2-.5-1.4-.4-2.7-.8-3.6-1.3-.9-.5-1.4-1.1-1.4-1.7V8c1.1.7 2.5 1.3 4.4 1.7 1.8.4 3.8.6 5.9.6m0 10.3c2.1 0 4.1-.2 5.9-.6 1.8-.4 3.3-1 4.4-1.7v2.3c0 .6-.5 1.2-1.4 1.7-.9.5-2.2.9-3.8 1.3-1.5.2-3.2.4-5.1.4-1.7 0-3.5-.1-5.2-.5-1.6-.3-2.8-.7-3.7-1.3-.9-.5-1.4-1.1-1.4-1.7v-2.3c1.1.8 2.5 1.4 4.4 1.8 1.8.4 3.8.6 5.9.6m0-5.2c2.1 0 4.1-.2 5.9-.6 1.8-.4 3.3-1 4.4-1.7v2.3c0 .6-.5 1.2-1.4 1.7-.9.5-2.2.9-3.8 1.3-1.7.3-3.4.5-5.2.5-1.9 0-3.6-.2-5.2-.5s-2.8-.7-3.7-1.3c-.9-.5-1.4-1.1-1.4-1.7v-2.3c1.1.7 2.5 1.3 4.4 1.7 2 .4 4 .6 6 .6M12 0c1.9 0 3.6.2 5.2.5s2.8.7 3.7 1.3c.9.5 1.4 1.1 1.4 1.7v1.7c0 .6-.5 1.2-1.4 1.7-.9.5-2.2.9-3.8 1.3-1.6.3-3.3.5-5.2.5-1.7 0-3.5-.1-5.2-.5-1.4-.4-2.7-.8-3.6-1.3-.9-.6-1.4-1.1-1.4-1.8V3.4c0-.6.5-1.2 1.4-1.7C4 1.2 5.3.8 6.8.5 8.5.1 10.3 0 12 0"/></svg>
