<svg id="user" xmlns="http://www.w3.org/2000/svg" width="14" height="14" viewBox="0 0 14 14"><path d="M8.6 7.4c.6-.4.9-1.1.9-1.9C9.5 4.1 8.4 3 7 3S4.5 4.1 4.5 5.5c0 .8.3 1.5.9 1.9-1 .4-1.9 1.2-2.4 2.2.2.4.5.7.8 1C4.3 9.2 5.5 8.3 7 8.3c1.5 0 2.7.9 3.2 2.3.3-.3.6-.6.8-1-.5-1-1.3-1.8-2.4-2.2zM7 6.9c-.8 0-1.4-.6-1.4-1.4 0-.8.6-1.4 1.4-1.4.8 0 1.4.6 1.4 1.4 0 .8-.6 1.4-1.4 1.4zM7 0C3.2 0 0 3.2 0 7s3.1 7 7 7c3.8 0 7-3.1 7-7 0-3.8-3.2-7-7-7zm0 12.8c-3.2 0-5.8-2.6-5.8-5.8S3.8 1.2 7 1.2c3.2 0 5.8 2.6 5.8 5.8s-2.6 5.8-5.8 5.8z"/></svg>
